<svg width="19" height="19" viewBox="0 0 19 19" fill="none" xmlns="http://www.w3.org/2000/svg">
<path d="M9.41667 2.5H5.5C4.09987 2.5 3.3998 2.5 2.86502 2.77248C2.39462 3.01217 2.01217 3.39462 1.77248 3.86502C1.5 4.3998 1.5 5.09987 1.5 6.5V13.5C1.5 14.9001 1.5 15.6002 1.77248 16.135C2.01217 16.6054 2.39462 16.9878 2.86502 17.2275C3.3998 17.5 4.09987 17.5 5.5 17.5H13.1667C13.9416 17.5 14.3291 17.5 14.647 17.4148C15.5098 17.1836 16.1836 16.5098 16.4148 15.647C16.5 15.3291 16.5 14.9416 16.5 14.1667M14.8333 6.66667V1.66667M12.3333 4.16667H17.3333M7.75 7.08333C7.75 8.00381 7.00381 8.75 6.08333 8.75C5.16286 8.75 4.41667 8.00381 4.41667 7.08333C4.41667 6.16286 5.16286 5.41667 6.08333 5.41667C7.00381 5.41667 7.75 6.16286 7.75 7.08333ZM11.4917 9.93179L4.44262 16.34C4.04614 16.7005 3.84789 16.8807 3.83036 17.0368C3.81516 17.1722 3.86704 17.3064 3.96932 17.3963C4.08732 17.5 4.35523 17.5 4.89107 17.5H12.7133C13.9126 17.5 14.5123 17.5 14.9833 17.2985C15.5745 17.0456 16.0456 16.5745 16.2985 15.9833C16.5 15.5123 16.5 14.9126 16.5 13.7133C16.5 13.3098 16.5 13.108 16.4559 12.9201C16.4005 12.684 16.2941 12.4628 16.1444 12.272C16.0252 12.1202 15.8677 11.9941 15.5526 11.742L13.2215 9.87722C12.9062 9.62492 12.7485 9.49878 12.5748 9.45426C12.4218 9.41502 12.2607 9.4201 12.1104 9.46891C11.94 9.52428 11.7905 9.66012 11.4917 9.93179Z" stroke="#6172F3" stroke-width="1.8" stroke-linecap="round" stroke-linejoin="round"/>
</svg>
