<svg width="46" height="46" viewBox="0 0 46 46" fill="none" xmlns="http://www.w3.org/2000/svg">
<rect x="3" y="3" width="40" height="40" rx="20" fill="#F2F4F7"/>
<path d="M23.834 14.6667H18.0007C17.5586 14.6667 17.1347 14.8423 16.8221 15.1548C16.5096 15.4674 16.334 15.8913 16.334 16.3333V29.6667C16.334 30.1087 16.5096 30.5326 16.8221 30.8452C17.1347 31.1577 17.5586 31.3333 18.0007 31.3333H28.0007C28.4427 31.3333 28.8666 31.1577 29.1792 30.8452C29.4917 30.5326 29.6673 30.1087 29.6673 29.6667V20.5M23.834 14.6667L29.6673 20.5M23.834 14.6667V20.5H29.6673" stroke="#475467" stroke-width="1.66667" stroke-linecap="round" stroke-linejoin="round"/>
<rect x="3" y="3" width="40" height="40" rx="20" stroke="#F9FAFB" stroke-width="6"/>
</svg>
