<svg width="64" height="64" viewBox="0 0 64 64" fill="none" xmlns="http://www.w3.org/2000/svg">
<rect width="64" height="64" rx="32" fill="#EEF4FF"/>
<path d="M42.6673 44V41.3333C42.6673 39.9188 42.1054 38.5623 41.1052 37.5621C40.105 36.5619 38.7485 36 37.334 36H26.6673C25.2528 36 23.8963 36.5619 22.8961 37.5621C21.8959 38.5623 21.334 39.9188 21.334 41.3333V44M37.334 25.3333C37.334 28.2789 34.9462 30.6667 32.0007 30.6667C29.0551 30.6667 26.6673 28.2789 26.6673 25.3333C26.6673 22.3878 29.0551 20 32.0007 20C34.9462 20 37.334 22.3878 37.334 25.3333Z" stroke="#444CE7" stroke-width="2.66667" stroke-linecap="round" stroke-linejoin="round"/>
</svg>
