<svg width="18" height="20" viewBox="0 0 18 20" fill="none" xmlns="http://www.w3.org/2000/svg">
<path d="M6.15833 11.2583L11.85 14.575M11.8417 5.42499L6.15833 8.74166M16.5 4.16666C16.5 5.54737 15.3807 6.66666 14 6.66666C12.6193 6.66666 11.5 5.54737 11.5 4.16666C11.5 2.78594 12.6193 1.66666 14 1.66666C15.3807 1.66666 16.5 2.78594 16.5 4.16666ZM6.5 9.99999C6.5 11.3807 5.38071 12.5 4 12.5C2.61929 12.5 1.5 11.3807 1.5 9.99999C1.5 8.61928 2.61929 7.49999 4 7.49999C5.38071 7.49999 6.5 8.61928 6.5 9.99999ZM16.5 15.8333C16.5 17.214 15.3807 18.3333 14 18.3333C12.6193 18.3333 11.5 17.214 11.5 15.8333C11.5 14.4526 12.6193 13.3333 14 13.3333C15.3807 13.3333 16.5 14.4526 16.5 15.8333Z" stroke="#344054" stroke-width="1.67" stroke-linecap="round" stroke-linejoin="round"/>
</svg>
