<svg width="16" height="18" viewBox="0 0 14 16" fill="none" xmlns="http://www.w3.org/2000/svg">
<path d="M1 3.99992H2.33333M2.33333 3.99992H13M2.33333 3.99992V13.3333C2.33333 13.6869 2.47381 14.026 2.72386 14.2761C2.97391 14.5261 3.31304 14.6666 3.66667 14.6666H10.3333C10.687 14.6666 11.0261 14.5261 11.2761 14.2761C11.5262 14.026 11.6667 13.6869 11.6667 13.3333V3.99992H2.33333ZM4.33333 3.99992V2.66659C4.33333 2.31296 4.47381 1.97382 4.72386 1.72378C4.97391 1.47373 5.31304 1.33325 5.66667 1.33325H8.33333C8.68696 1.33325 9.02609 1.47373 9.27614 1.72378C9.52619 1.97382 9.66667 2.31296 9.66667 2.66659V3.99992M5.66667 7.33325V11.3333M8.33333 7.33325V11.3333" stroke="#F04438" stroke-width="1.33333" stroke-linecap="round" stroke-linejoin="round"/>
</svg>
