<svg width="67" height="66" viewBox="0 0 67 66" fill="none" xmlns="http://www.w3.org/2000/svg">
<rect x="5.5" y="5" width="56" height="56" rx="28" fill="#FFF1D2"/>
<path d="M45.1667 38.7398V42.2398C45.168 42.5647 45.1014 42.8863 44.9713 43.184C44.8411 43.4817 44.6502 43.749 44.4108 43.9686C44.1713 44.1883 43.8887 44.3555 43.5809 44.4596C43.2731 44.5637 42.9469 44.6024 42.6233 44.5731C39.0333 44.183 35.5848 42.9563 32.555 40.9915C29.7361 39.2002 27.3462 36.8103 25.555 33.9915C23.5833 30.9479 22.3563 27.4826 21.9733 23.8765C21.9442 23.5538 21.9825 23.2287 22.0859 22.9217C22.1893 22.6147 22.3555 22.3326 22.5739 22.0933C22.7923 21.8541 23.0581 21.6629 23.3544 21.5321C23.6507 21.4012 23.9711 21.3334 24.295 21.3331H27.795C28.3612 21.3275 28.9101 21.528 29.3394 21.8972C29.7687 22.2664 30.0491 22.7791 30.1283 23.3398C30.2761 24.4599 30.55 25.5596 30.945 26.6181C31.102 27.0357 31.1359 27.4895 31.0429 27.9258C30.9498 28.3621 30.7337 28.7626 30.42 29.0798L28.9383 30.5615C30.5992 33.4823 33.0175 35.9006 35.9383 37.5615L37.42 36.0798C37.7372 35.7661 38.1377 35.5499 38.574 35.4569C39.0103 35.3638 39.4641 35.3978 39.8817 35.5548C40.9402 35.9498 42.0399 36.2237 43.16 36.3715C43.7267 36.4514 44.2443 36.7369 44.6143 37.1735C44.9843 37.6102 45.1809 38.1676 45.1667 38.7398Z" stroke="#FFBA1F" stroke-width="2.33333" stroke-linecap="round" stroke-linejoin="round"/>
<rect x="5.5" y="5" width="56" height="56" rx="28" stroke="#FFF8E9" stroke-width="10"/>
</svg>
