<svg width="66" height="66" viewBox="0 0 66 66" fill="none" xmlns="http://www.w3.org/2000/svg">
<rect x="5" y="5" width="56" height="56" rx="28" fill="#FFF1D2"/>
<path d="M37.0837 27.7499L41.167 23.6666M43.5003 21.3333L41.167 23.6666L43.5003 21.3333ZM32.2887 32.5449C32.8911 33.1393 33.3699 33.847 33.6977 34.6272C34.0255 35.4074 34.1957 36.2447 34.1985 37.091C34.2014 37.9373 34.0368 38.7757 33.7142 39.5581C33.3917 40.3405 32.9176 41.0514 32.3192 41.6498C31.7208 42.2482 31.0099 42.7223 30.2275 43.0448C29.4451 43.3674 28.6067 43.532 27.7604 43.5291C26.9141 43.5263 26.0768 43.3561 25.2966 43.0283C24.5164 42.7005 23.8087 42.2216 23.2143 41.6193C22.0455 40.4091 21.3987 38.7882 21.4133 37.1058C21.4279 35.4233 22.1028 33.814 23.2925 32.6242C24.4822 31.4345 26.0916 30.7597 27.774 30.7451C29.4564 30.7305 31.0773 31.3772 32.2875 32.5461L32.2887 32.5449ZM32.2887 32.5449L37.0837 27.7499L32.2887 32.5449ZM37.0837 27.7499L40.5837 31.2499L44.667 27.1666L41.167 23.6666L37.0837 27.7499Z" stroke="#FFBA1F" stroke-width="2.33333" stroke-linecap="round" stroke-linejoin="round"/>
<rect x="5" y="5" width="56" height="56" rx="28" stroke="#FFF8E9" stroke-width="10"/>
</svg>
